<svg xmlns="http://www.w3.org/2000/svg" viewBox="0 0 191 191" width="191" height="191">
	<style>
		tspan { white-space:pre }
		.shp0 { fill: #ffffff } 
	</style>
	<g id="Layer">
		<g id="Layer">
			<path id="Layer" fill-rule="evenodd" class="shp0" d="M188.86 95.37C187.5 96.51 185.64 95.87 184.02 94.93C182.7 94.14 181.38 93.44 180.03 94.17C178.49 95.04 177.75 97.78 176.95 100.69C176.04 104.04 175.02 107.86 172.31 110.1C168.95 112.95 164.52 114.38 159.15 114.38C153.22 114.38 148.3 112.63 148.11 112.56C147.91 112.45 147.73 112.32 147.59 112.17C142.64 112.91 137 112.35 130.94 111.74C128.18 111.46 125.37 111.02 122.52 110.58C122.14 110.55 121.77 110.49 121.38 110.43C125.16 113.25 127.49 117.13 128.14 121.86C130.07 119.33 133.04 117.12 137.34 117.12C139.07 117.12 140.94 117.49 142.88 118.17C152.4 121.54 153.35 129.64 151.81 144.35C151.26 149.59 151.71 155.03 155.65 164.41C155.89 164.68 156.02 165.03 156.02 165.42C156.02 166.29 155.32 166.98 154.46 166.98C154.44 166.98 154.41 166.98 154.38 166.98C154.28 166.98 154.2 166.97 154.11 166.95C152.93 166.75 125.18 161.77 116.34 147.07C113.41 142.2 112.87 136.83 114.77 131.09C115.58 128.59 119.09 124.96 123.34 124.96C123.98 124.96 124.58 125.16 125.19 125.3C125.49 117.08 120.46 111.43 111.01 109.28C106.94 109.05 102.95 109.29 99.15 110.44C101.01 111.6 102.83 112.95 104.55 114.71C109.1 119.46 111.37 125.56 110.92 131.92C110.42 138.95 106.68 145.66 100.66 150.36C100.38 150.57 100.05 150.7 99.71 150.7C99.25 150.7 98.79 150.48 98.49 150.09C97.96 149.39 98.09 148.42 98.76 147.89C104.08 143.73 107.39 137.81 107.82 131.67C108.19 126.2 106.24 120.94 102.31 116.86C100.14 114.62 97.83 113.04 95.4 111.86C93 113.06 90.68 114.64 88.49 116.86C84.55 120.94 82.59 126.2 82.98 131.67C83.41 137.83 86.72 143.74 92.05 147.89C92.71 148.42 92.85 149.42 92.32 150.09C92.01 150.49 91.55 150.7 91.1 150.7C90.77 150.7 90.43 150.57 90.15 150.36C84.13 145.66 80.38 138.95 79.88 131.92C79.43 125.55 81.7 119.46 86.26 114.71C87.98 112.92 89.79 111.6 91.66 110.44C87.86 109.3 83.86 109.05 79.8 109.28C70.35 111.43 65.31 117.08 65.61 125.3C66.22 125.15 66.82 124.96 67.45 124.96C71.71 124.96 75.23 128.59 76.04 131.09C77.92 136.81 77.39 142.2 74.47 147.07C65.63 161.77 37.86 166.75 36.69 166.95C36.6 166.97 36.52 166.98 36.42 166.98C35.97 166.98 35.52 166.78 35.21 166.39C35.21 166.39 35.21 166.39 35.21 166.38L35.2 166.38C34.97 166.09 34.9 165.75 34.91 165.37C34.91 165.27 34.93 165.22 34.95 165.11C34.97 165.02 34.95 164.91 35 164.81C39.09 155.18 39.57 149.67 39.02 144.34C37.47 129.64 38.44 121.53 47.93 118.17C49.9 117.49 51.77 117.12 53.49 117.12C57.8 117.12 60.76 119.33 62.69 121.86C63.33 117.13 65.65 113.25 69.44 110.43C69.05 110.47 68.68 110.53 68.3 110.58C65.46 111.03 62.63 111.46 59.88 111.74C53.83 112.33 48.19 112.88 43.23 112.17C43.09 112.34 42.91 112.48 42.71 112.56C42.5 112.63 37.58 114.38 31.67 114.38C26.3 114.38 21.87 112.93 18.51 110.1C15.81 107.84 14.78 104.04 13.87 100.69C13.08 97.78 12.33 95.04 10.79 94.17C9.45 93.43 8.13 94.14 6.79 94.93C5.19 95.88 3.32 96.51 1.97 95.37C-1.49 92.46 -0.27 85.52 4.75 79.56C9.64 73.77 16.47 71.27 19.84 74.11C21.51 75.51 20.77 77.5 20.23 78.94C19.56 80.71 19.25 81.85 20.17 83.02C21.27 84.39 24.11 84.66 27.11 84.94C30.56 85.27 34.47 85.63 37.17 87.9C44.45 94.02 44.36 104.59 43.96 109.13C47.29 109.54 51.23 109.38 55.91 108.96C49.97 106.62 46.08 101.95 44.92 95.26C44.76 94.4 45.33 93.6 46.19 93.45C47.08 93.29 47.85 93.88 47.99 94.72C49.45 103.26 55.96 107.79 66.33 107.58C66.44 107.58 66.47 107.65 66.58 107.68C66.97 107.64 67.38 107.59 67.77 107.52C71 107.04 74.32 106.54 77.65 106.27C72.43 104.08 68.96 100.2 66.25 95.8C66.03 95.64 65.83 95.43 65.7 95.15C65.64 94.93 65.59 94.73 65.51 94.53C64 91.89 62.71 89.15 61.5 86.49C61.37 86.22 61.25 85.98 61.12 85.72C61.06 85.65 60.98 85.62 60.93 85.53C56.78 78.81 51.18 76.56 45.15 79.16C44.37 79.51 43.45 79.14 43.1 78.35C42.76 77.55 43.13 76.66 43.92 76.3C48.38 74.36 52.71 74.61 56.56 76.79C55 74.14 53.32 71.56 52.06 69.8C51.76 70.28 51.41 70.74 50.99 71.13C50.2 71.83 49.27 72.32 48.26 72.56C47 72.88 45.6 72.75 44.4 72.24C43.82 73.4 42.85 74.37 41.67 74.97C40.82 75.4 39.89 75.62 38.9 75.62C38.89 75.62 38.68 75.61 38.66 75.61C37.36 75.54 36.14 75.1 35.15 74.33C34.18 74.94 33.03 75.28 31.85 75.28C30.56 75.25 29.53 74.94 28.62 74.39C27.47 73.65 26.6 72.61 26.12 71.41C24.89 71.8 23.5 71.8 22.25 71.39C21.23 71.04 20.34 70.45 19.65 69.7C18.79 68.76 18.25 67.55 18.09 66.3C16.79 66.02 15.69 65.38 14.86 64.46C14.17 63.69 13.67 62.74 13.43 61.75C13.1 60.43 13.26 59.08 13.75 57.89C12.58 57.31 11.64 56.35 11.03 55.13C10.55 54.21 10.33 53.19 10.38 52.13C10.44 50.84 10.89 49.61 11.66 48.63C10.99 47.56 10.63 46.31 10.7 45.02C10.74 43.94 11.06 42.93 11.61 42.06C12.32 40.93 13.35 40.06 14.55 39.58C14.16 38.36 14.16 37.02 14.58 35.73C14.9 34.73 15.49 33.83 16.27 33.14C17.2 32.26 18.37 31.71 19.64 31.56C19.92 30.32 20.57 29.21 21.5 28.33C22.29 27.61 23.22 27.11 24.23 26.89C25.54 26.59 26.92 26.71 28.09 27.22C28.67 26.04 29.65 25.09 30.84 24.49C31.66 24.06 32.59 23.84 33.55 23.84C35.04 23.91 36.32 24.36 37.33 25.12C38.32 24.5 39.48 24.16 40.66 24.16C42.01 24.21 43.03 24.52 43.91 25.07C45.03 25.78 45.9 26.83 46.41 28.05C47.65 27.64 49.05 27.64 50.28 28.08C51.26 28.4 52.16 28.99 52.86 29.75C53.74 30.71 54.28 31.91 54.43 33.17C55.72 33.45 56.81 34.09 57.65 35.01C58.37 35.78 58.85 36.69 59.1 37.74C59.43 39.05 59.3 40.38 58.78 41.58C59.95 42.15 60.9 43.13 61.5 44.33C61.94 45.23 62.18 46.27 62.14 47.32C62.06 48.63 61.61 49.85 60.85 50.82C61.53 51.9 61.88 53.14 61.82 54.41C61.76 55.53 61.44 56.54 60.9 57.4C60.2 58.53 59.16 59.4 57.96 59.87C58.35 61.11 58.36 62.46 57.92 63.72C57.62 64.69 57.03 65.6 56.25 66.31C55.67 66.84 54.97 67.22 54.24 67.48C56.4 70.4 59.65 75.63 61.49 79.19C62.44 81.01 63.33 82.97 64.22 84.92C64.66 81.9 66.02 79.26 68.24 77.11C65.33 76.74 61.44 75.04 59.95 68.87C58.05 61.02 63.22 56.72 73.44 51.49C77.1 49.58 80.46 46.94 84.97 40.23C85.02 40.17 85.1 40.13 85.17 40.07C85.27 39.97 85.33 39.91 85.44 39.84C85.74 39.65 86.08 39.51 86.39 39.56C86.4 39.56 86.4 39.56 86.4 39.56C86.4 39.56 86.4 39.56 86.41 39.56C86.77 39.6 87.07 39.8 87.32 40.06C87.37 40.12 87.44 40.17 87.49 40.26C87.53 40.35 87.61 40.38 87.66 40.48C88.04 41.33 96.69 61.72 90.79 73.93C88.82 78 85.46 80.72 80.79 81.96C80.37 82.07 79.9 82.14 79.34 82.14C77.64 82.14 75.24 81.52 73.55 79.81C72.98 79.26 72.6 78.56 72.29 77.85C67.25 81.1 65.88 86.56 68.4 93.34C71.54 98.8 75.57 103.19 82.7 104.55C86.32 105.25 89.83 104.58 92.86 102.85C89.39 99.48 87.09 94.81 86.67 89.55C86.6 88.68 87.22 87.94 88.09 87.86C88.94 87.74 89.7 88.42 89.78 89.29C90.17 93.98 92.23 98.12 95.41 100.99C98.56 98.12 100.64 93.98 101.03 89.29C101.11 88.42 101.87 87.73 102.72 87.86C103.59 87.94 104.23 88.68 104.15 89.55C103.72 94.81 101.43 99.48 97.95 102.85C100.96 104.58 104.49 105.23 108.1 104.55C115.24 103.19 119.26 98.8 122.41 93.34C124.93 86.56 123.56 81.1 118.52 77.85C118.21 78.56 117.81 79.24 117.25 79.81C115.56 81.52 113.15 82.14 111.46 82.14C110.91 82.14 110.43 82.09 110 81.96C105.34 80.72 101.99 78 100 73.93C94.11 61.72 102.77 41.35 103.14 40.48C103.18 40.39 103.26 40.34 103.31 40.26C103.34 40.19 103.41 40.12 103.47 40.06C103.73 39.8 104.01 39.6 104.38 39.56C104.4 39.56 104.4 39.56 104.4 39.56C104.4 39.56 104.4 39.56 104.41 39.56C104.72 39.51 105.05 39.65 105.37 39.84C105.47 39.91 105.52 39.95 105.6 40.04C105.68 40.1 105.78 40.14 105.84 40.23C110.34 46.96 113.7 49.58 117.36 51.5C127.58 56.72 132.76 61.02 130.85 68.87C129.36 75.04 125.46 76.72 122.55 77.11C124.8 79.26 126.16 81.9 126.58 84.92C127.47 82.95 128.37 81.01 129.31 79.19C131.15 75.63 134.39 70.4 136.54 67.48C135.83 67.22 135.15 66.85 134.56 66.33C133.77 65.59 133.19 64.69 132.87 63.7C132.45 62.45 132.46 61.09 132.85 59.85C131.61 59.37 130.58 58.52 129.88 57.36C129.36 56.54 129.05 55.53 128.97 54.44C128.93 53.14 129.28 51.88 129.95 50.82C129.19 49.82 128.73 48.62 128.66 47.33C128.63 46.25 128.86 45.21 129.31 44.29C129.91 43.09 130.84 42.15 132.02 41.57C131.51 40.36 131.38 39.02 131.7 37.71C131.94 36.66 132.44 35.74 133.16 34.98C134.02 34.02 135.15 33.38 136.38 33.11C136.53 31.87 137.07 30.7 137.93 29.73C138.64 28.96 139.55 28.38 140.54 28.05C141.74 27.64 143.16 27.63 144.4 28.04C144.88 26.81 145.73 25.76 146.88 25.05C147.76 24.52 148.77 24.21 149.82 24.14C149.83 24.14 149.84 24.14 149.85 24.14C151.23 24.14 152.44 24.48 153.43 25.11C154.45 24.34 155.66 23.9 156.94 23.84C158.15 23.83 159.11 24.06 159.96 24.49C161.15 25.07 162.1 26.03 162.7 27.2C163.88 26.69 165.27 26.57 166.56 26.87C167.59 27.1 168.49 27.6 169.28 28.33C170.23 29.19 170.87 30.32 171.14 31.54C172.4 31.7 173.6 32.25 174.52 33.12C175.3 33.82 175.89 34.72 176.22 35.71C176.63 37 176.63 38.35 176.23 39.58C177.48 40.06 178.51 40.91 179.19 42.06C179.72 42.92 180.05 43.93 180.11 44.99C180.17 46.29 179.81 47.54 179.14 48.62C179.92 49.62 180.37 50.83 180.44 52.12C180.48 53.18 180.26 54.2 179.79 55.13C179.18 56.33 178.24 57.27 177.07 57.87C177.59 59.06 177.72 60.42 177.4 61.72C177.15 62.75 176.65 63.68 175.96 64.45C175.11 65.41 173.97 66.04 172.71 66.32C172.57 67.55 172.02 68.75 171.15 69.68C170.48 70.44 169.58 71.01 168.6 71.37C167.29 71.8 165.94 71.79 164.7 71.4C164.23 72.62 163.38 73.65 162.22 74.37C161.28 74.93 160.25 75.24 159.23 75.26C159.22 75.26 159.22 75.26 159.21 75.26C157.87 75.26 156.67 74.93 155.67 74.31C154.66 75.09 153.46 75.53 152.17 75.6C152.14 75.6 151.92 75.61 151.9 75.61C150.93 75.61 150 75.39 149.14 74.97C147.95 74.37 147 73.39 146.4 72.23C145.19 72.75 143.82 72.87 142.54 72.55C141.52 72.31 140.59 71.82 139.82 71.12C139.4 70.72 139.05 70.27 138.76 69.79C137.49 71.55 135.8 74.15 134.24 76.79C138.09 74.61 142.41 74.37 146.89 76.29C147.67 76.65 148.05 77.55 147.71 78.34C147.35 79.13 146.43 79.47 145.65 79.16C139.61 76.55 134.02 78.81 129.87 85.52C129.82 85.59 129.75 85.64 129.69 85.7C129.55 85.97 129.44 86.21 129.31 86.48C128.08 89.14 126.79 91.89 125.29 94.52C125.23 94.73 125.18 94.94 125.09 95.15C124.97 95.41 124.78 95.63 124.55 95.8C121.87 100.19 118.37 104.08 113.16 106.26C116.49 106.53 119.81 107.03 123.02 107.51C123.43 107.56 123.83 107.61 124.23 107.67C124.33 107.66 124.37 107.57 124.47 107.57C134.87 107.8 141.36 103.24 142.82 94.71C142.95 93.87 143.72 93.29 144.62 93.45C145.47 93.59 146.03 94.4 145.89 95.25C144.73 101.95 140.83 106.61 134.89 108.95C139.57 109.38 143.51 109.53 146.84 109.12C146.44 104.59 146.36 94.01 153.63 87.89C156.32 85.62 160.23 85.26 163.69 84.93C166.68 84.65 169.52 84.38 170.63 83.02C171.56 81.86 171.23 80.7 170.58 78.94C170.05 77.49 169.29 75.52 170.97 74.1C174.36 71.28 181.17 73.75 186.06 79.55C191.08 85.51 192.31 92.45 188.86 95.37ZM113.85 74.26C113.4 73.82 112.95 73.3 112.53 72.76L102.54 71.79C102.65 72.03 102.67 72.31 102.79 72.54C103.18 73.31 103.61 73.99 104.09 74.63C104.14 74.63 104.18 74.57 104.24 74.57L113.85 74.26ZM119.91 56.4L112.31 66.59C112.7 67.43 113.13 68.21 113.57 68.94L122.5 57.99C121.74 57.48 120.86 56.94 119.91 56.4ZM101.54 68.56L110.3 69.41C109.92 68.73 109.56 68.03 109.21 67.31L101.1 64.48C101.14 65.89 101.26 67.24 101.54 68.56ZM107.68 63.47C107.46 62.89 107.25 62.32 107.07 61.72L101.44 58.4C101.32 59.32 101.2 60.28 101.13 61.2L107.68 63.47ZM103.83 47.7C103.69 48.19 103.53 48.69 103.38 49.21L104.23 49.98C104.08 49.19 103.95 48.42 103.83 47.7ZM102.5 52.63C102.32 53.43 102.14 54.25 101.99 55.09L105.83 57.37C105.64 56.63 105.44 55.88 105.28 55.15C105.27 55.14 105.25 55.15 105.24 55.14L102.5 52.63ZM128.03 65.45L120.89 74.05C120.97 74.05 121.01 74.07 121.1 74.07C124.58 74.07 126.85 72.06 127.8 68.1C128.03 67.16 128.08 66.28 128.03 65.45ZM124.98 59.91L115.49 71.5C116.17 72.22 116.86 72.76 117.6 73.14L126.83 62.01C126.36 61.32 125.75 60.61 124.98 59.91ZM115.92 54.23C115.61 54.07 115.28 53.85 114.96 53.67L110.04 60.7C110.32 61.56 110.6 62.41 110.91 63.23L117.14 54.88C116.73 54.67 116.37 54.46 115.92 54.23ZM110.67 50.66L108.25 53.96C108.46 54.9 108.68 55.88 108.93 56.84L112.35 51.98C111.79 51.56 111.23 51.16 110.67 50.66ZM106.84 46.68C107 47.67 107.2 48.74 107.39 49.83L108.39 48.47C107.89 47.95 107.36 47.29 106.84 46.68ZM115 77.61C115.06 77.51 115.09 77.42 115.17 77.33L107.53 77.57C108.52 78.12 109.56 78.59 110.78 78.92C110.87 78.95 111.08 79 111.43 79C112.53 79 114.06 78.56 115 77.61ZM135.77 62.67C135.96 63.17 136.24 63.62 136.62 63.98C137.28 64.58 138.23 64.87 139.09 64.73C139.55 64.72 140 64.8 140.35 65.12C140.7 65.42 140.88 65.87 140.87 66.32C140.83 67.29 141.19 68.13 141.86 68.76C142.25 69.11 142.7 69.34 143.21 69.46C144.25 69.72 145.38 69.39 146.11 68.63C146.41 68.32 146.83 68.16 147.23 68.16C147.41 68.16 147.6 68.18 147.75 68.25C148.35 68.45 148.74 68.98 148.79 69.61C148.87 70.69 149.53 71.63 150.48 72.12C150.91 72.32 151.37 72.44 151.87 72.44L151.87 74L152 72.42C152.89 72.41 153.72 71.97 154.27 71.23C154.55 70.85 154.99 70.64 155.44 70.6C156.02 70.6 156.35 70.77 156.67 71.11C157.25 71.75 158.06 72.11 158.92 72.11C159.61 72.08 160.1 71.95 160.56 71.66C161.45 71.1 162 70.1 161.99 69C161.99 68.38 162.34 67.83 162.9 67.58C163.46 67.31 164.11 67.41 164.59 67.81C165.38 68.5 166.57 68.72 167.56 68.39C168.04 68.22 168.48 67.93 168.82 67.55C169.44 66.88 169.73 65.95 169.6 65.09C169.54 64.63 169.67 64.17 169.99 63.82C170.3 63.45 170.73 63.27 171.21 63.3C171.21 63.3 171.22 63.3 171.22 63.3C172.24 63.3 173.05 62.96 173.62 62.31C173.97 61.91 174.22 61.46 174.35 60.95C174.6 59.91 174.26 58.79 173.49 58.06C173.05 57.62 172.9 56.97 173.11 56.4C173.32 55.81 173.85 55.42 174.46 55.37C175.55 55.28 176.49 54.65 176.98 53.68C177.21 53.22 177.32 52.72 177.3 52.2C177.26 51.31 176.81 50.46 176.08 49.91C175.71 49.64 175.48 49.2 175.46 48.74C175.44 48.28 175.62 47.83 175.97 47.51C176.64 46.88 177.02 46.01 176.98 45.1C176.95 44.58 176.8 44.07 176.54 43.67C175.97 42.75 175.01 42.21 173.95 42.21C173.35 42.21 172.75 41.87 172.51 41.31C172.25 40.76 172.29 40.1 172.67 39.64C173.4 38.83 173.62 37.7 173.26 36.65C173.09 36.16 172.82 35.75 172.43 35.38C171.79 34.77 170.88 34.49 169.96 34.61C169.54 34.67 169.05 34.55 168.71 34.23C168.37 33.92 168.18 33.47 168.2 33.01C168.24 32.08 167.88 31.22 167.21 30.6C166.81 30.24 166.36 30 165.89 29.88C164.82 29.64 163.7 29.96 162.94 30.74C162.5 31.19 161.86 31.32 161.27 31.1C160.7 30.89 160.32 30.36 160.26 29.75C160.19 28.7 159.54 27.73 158.58 27.28C158.15 27.06 157.72 26.94 157.25 26.94C156.18 26.97 155.34 27.41 154.78 28.14C154.5 28.51 154.07 28.74 153.61 28.77C153.14 28.75 152.71 28.61 152.39 28.25C151.81 27.61 151.01 27.24 150.13 27.24C149.45 27.28 148.95 27.43 148.53 27.69C147.63 28.25 147.06 29.28 147.08 30.36C147.08 30.97 146.72 31.53 146.17 31.8C145.61 32.05 144.95 31.97 144.49 31.56C143.67 30.87 142.51 30.64 141.51 30.98C141 31.16 140.58 31.43 140.22 31.81C139.6 32.48 139.34 33.37 139.46 34.28C139.53 34.74 139.4 35.2 139.08 35.54C138.76 35.9 138.33 36.06 137.85 36.06C137.85 36.06 137.85 36.06 137.84 36.06C136.83 36.06 136.03 36.39 135.44 37.04C135.1 37.44 134.86 37.88 134.72 38.39C134.47 39.45 134.78 40.54 135.56 41.29C136.01 41.72 136.16 42.37 135.95 42.95C135.75 43.53 135.22 43.93 134.61 43.97C133.52 44.06 132.57 44.71 132.1 45.66C131.86 46.15 131.74 46.64 131.76 47.18C131.79 48.05 132.27 48.91 132.96 49.44C133.34 49.72 133.58 50.17 133.6 50.61C133.63 51.08 133.44 51.52 133.1 51.84C132.42 52.48 132.04 53.35 132.08 54.26C132.11 54.78 132.26 55.29 132.52 55.69C133.08 56.61 134.05 57.16 135.13 57.16C135.72 57.16 136.32 57.5 136.58 58.07C136.83 58.62 136.78 59.28 136.39 59.74C135.69 60.55 135.46 61.68 135.77 62.67ZM68.27 58L77.21 68.94C77.64 68.21 78.08 67.43 78.47 66.59L70.86 56.4C69.93 56.94 69.03 57.48 68.27 58ZM80.49 69.41L89.24 68.56C89.51 67.24 89.64 65.89 89.68 64.48L81.56 67.31C81.22 68.03 80.86 68.73 80.49 69.41ZM88.28 52.62L85.54 55.14C85.53 55.15 85.51 55.14 85.5 55.15C85.33 55.88 85.13 56.63 84.95 57.37L88.8 55.09C88.64 54.25 88.47 53.43 88.28 52.62ZM87.37 49.21C87.23 48.69 87.07 48.19 86.94 47.7C86.82 48.42 86.69 49.19 86.55 49.98L87.37 49.21ZM83.09 63.47L89.64 61.2C89.58 60.27 89.47 59.32 89.34 58.4L83.71 61.72C83.51 62.31 83.31 62.89 83.09 63.47ZM76.95 74.26L86.55 74.56C86.59 74.56 86.63 74.63 86.69 74.63C87.18 73.99 87.61 73.31 87.98 72.54C88.11 72.31 88.14 72.03 88.24 71.79L78.26 72.76C77.84 73.3 77.4 73.82 76.95 74.26ZM83.24 77.57L75.61 77.33C75.66 77.41 75.69 77.5 75.78 77.61C76.71 78.56 78.24 79 79.33 79C79.68 79 79.89 78.95 79.98 78.92C81.2 78.6 82.25 78.13 83.24 77.57ZM82.39 48.47L83.38 49.83C83.58 48.74 83.77 47.68 83.93 46.68C83.41 47.29 82.88 47.95 82.39 48.47ZM78.42 51.98L81.85 56.84C82.1 55.88 82.32 54.9 82.54 53.96L80.12 50.66C79.54 51.16 78.99 51.56 78.42 51.98ZM74.83 54.23C74.39 54.46 74.03 54.65 73.61 54.89L79.84 63.23C80.15 62.41 80.45 61.58 80.73 60.7L75.81 53.67C75.49 53.85 75.16 54.07 74.83 54.23ZM63.95 62.01L73.19 73.14C73.92 72.76 74.63 72.22 75.28 71.51L65.81 59.91C65.02 60.61 64.41 61.32 63.95 62.01ZM69.67 74.07C69.75 74.07 69.8 74.05 69.88 74.05L62.74 65.45C62.69 66.28 62.74 67.16 62.96 68.1C63.92 72.06 66.17 74.07 69.67 74.07ZM51.61 64.75C52.46 64.89 53.42 64.59 54.09 63.98C54.47 63.63 54.75 63.19 54.9 62.71C55.23 61.68 55.01 60.54 54.32 59.74C53.92 59.25 53.82 58.6 54.09 58.05C54.34 57.47 54.83 57.09 55.51 57.14C56.66 57.14 57.62 56.61 58.17 55.7C58.45 55.29 58.59 54.77 58.62 54.21C58.67 53.32 58.29 52.46 57.61 51.84C57.26 51.52 57.07 51.07 57.11 50.61C57.13 50.14 57.36 49.72 57.74 49.44C58.44 48.9 58.88 48.05 58.95 47.14C58.96 46.64 58.85 46.15 58.62 45.68C58.13 44.71 57.2 44.08 56.1 43.99C55.49 43.94 54.95 43.55 54.74 42.96C54.54 42.38 54.7 41.72 55.13 41.31C55.92 40.55 56.24 39.46 55.97 38.41C55.87 37.89 55.63 37.45 55.28 37.07C54.7 36.42 53.9 36.06 53.01 36.06C52.56 36.06 52.01 35.88 51.72 35.52C51.42 35.19 51.18 34.73 51.25 34.29C51.39 33.4 51.11 32.49 50.48 31.81C50.14 31.44 49.72 31.16 49.22 30.99C48.18 30.67 47.06 30.89 46.23 31.59C45.75 31.97 45.1 32.05 44.54 31.81C43.99 31.55 43.64 31 43.65 30.38C43.66 29.3 43.1 28.27 42.19 27.71C41.77 27.45 41.27 27.3 40.72 27.26C40.72 27.26 40.72 27.26 40.71 27.26C39.73 27.26 38.93 27.63 38.32 28.27C38.01 28.62 37.57 28.8 37.1 28.79C36.63 28.76 36.21 28.53 35.93 28.16C35.38 27.43 34.56 27 33.66 26.97C33.21 26.93 32.57 27.08 32.18 27.28C31.2 27.75 30.56 28.69 30.47 29.77C30.43 30.38 30.05 30.91 29.47 31.12C28.89 31.33 28.23 31.19 27.81 30.75C27.04 29.97 25.9 29.65 24.85 29.9C24.38 30 23.94 30.23 23.55 30.6C22.87 31.23 22.5 32.11 22.55 33.02C22.57 33.48 22.38 33.93 22.04 34.23C21.7 34.54 21.22 34.68 20.79 34.63C19.85 34.48 18.97 34.76 18.32 35.38C17.91 35.75 17.63 36.17 17.47 36.66C17.14 37.7 17.35 38.81 18.06 39.65C18.45 40.12 18.53 40.77 18.28 41.32C18.02 41.88 17.49 42.21 16.84 42.23C15.72 42.23 14.76 42.76 14.2 43.67C13.93 44.09 13.79 44.59 13.76 45.13C13.71 46.04 14.09 46.9 14.77 47.53C15.12 47.84 15.3 48.3 15.27 48.75C15.25 49.23 15.03 49.65 14.65 49.93C13.92 50.48 13.48 51.3 13.43 52.22C13.41 52.74 13.53 53.24 13.76 53.67C14.25 54.66 15.17 55.29 16.27 55.38C16.89 55.43 17.42 55.82 17.62 56.41C17.84 56.98 17.68 57.65 17.24 58.06C16.47 58.8 16.14 59.91 16.39 60.97C16.5 61.46 16.75 61.94 17.11 62.33C17.69 62.95 18.48 63.31 19.38 63.31C19.83 63.31 20.37 63.51 20.66 63.84C20.95 64.18 21.18 64.65 21.12 65.09C20.98 65.96 21.27 66.9 21.88 67.55C22.23 67.95 22.67 68.25 23.19 68.41C24.08 68.72 25.33 68.5 26.13 67.82C26.61 67.43 27.26 67.32 27.81 67.59C28.37 67.84 28.74 68.38 28.72 69.01C28.72 70.11 29.27 71.11 30.18 71.7C30.62 71.96 31.11 72.09 31.61 72.11L31.62 72.11C32.66 72.11 33.46 71.76 34.05 71.12C34.35 70.79 34.78 70.61 35.21 70.61C35.23 70.61 35.26 70.61 35.29 70.61C35.76 70.64 36.19 70.87 36.47 71.24C37.02 71.97 37.85 72.4 38.76 72.44L38.88 74.01L38.88 72.45C39.37 72.45 39.85 72.34 40.27 72.13C41.23 71.65 41.87 70.69 41.96 69.62C42.01 68.99 42.4 68.47 43 68.26C43.57 68.06 44.22 68.22 44.64 68.65C45.37 69.4 46.54 69.75 47.54 69.47C48.05 69.37 48.51 69.14 48.89 68.78C49.56 68.15 49.92 67.28 49.89 66.33C49.87 65.9 50.05 65.45 50.4 65.14C50.74 64.82 51.2 64.71 51.61 64.75ZM37.74 110.58C35.26 109.51 33.04 107.89 31.12 105.46C30.26 105.88 29.31 106.16 28.33 106.16C26.73 106.16 25.18 105.56 23.99 104.48C22.74 103.31 21.99 101.72 21.92 100.03C21.86 98.32 22.44 96.67 23.6 95.42C25.9 92.91 30.16 92.71 32.66 95.01C35.1 97.23 35.33 100.84 33.47 103.44C35.53 106.07 37.93 107.64 40.87 108.5C41.18 104.28 41.06 95.25 35.15 90.28C33.19 88.65 29.95 88.35 26.81 88.04C23.14 87.73 19.68 87.38 17.73 85C15.61 82.37 16.63 79.65 17.3 77.86C17.47 77.34 17.76 76.58 17.73 76.33C17.4 76.15 16.83 75.97 16.14 75.97C14 75.97 10.37 77.7 7.12 81.55C3.03 86.41 2.17 91.47 3.94 92.96C4.02 92.9 4.73 92.5 5.19 92.22C6.33 91.54 7.79 90.7 9.54 90.7C10.47 90.7 11.38 90.94 12.27 91.44C14.95 92.93 15.87 96.31 16.83 99.86C17.66 102.91 18.52 106.06 20.47 107.71C23.26 110.06 27.02 111.24 31.63 111.24C33.92 111.24 36.02 110.93 37.74 110.58ZM30.77 101.98C32 100.64 31.91 98.55 30.56 97.32C29.96 96.76 29.17 96.45 28.35 96.45C27.41 96.45 26.53 96.84 25.9 97.54C25.29 98.2 24.99 99.02 25.03 99.9C25.07 100.77 25.46 101.59 26.11 102.19C27.39 103.36 29.59 103.27 30.77 101.98ZM71.78 145.41C72.41 144.37 72.9 143.28 73.27 142.16C73.16 142.09 73.01 142.12 72.91 141.99L65.13 130.88C65 132.1 64.74 133.34 64.31 134.62L70.68 146.82C71.02 146.35 71.47 145.92 71.78 145.41ZM41.75 130.72L61.66 132.8C62.09 131.26 62.21 129.83 62.02 128.53L42.94 126.35C42.4 127.57 41.97 128.96 41.75 130.72ZM41.55 133.81C41.51 135.27 41.52 136.84 41.63 138.61L58.52 139.61C59.33 138.31 60.01 137.04 60.57 135.8L41.55 133.81ZM56.49 142.64L41.89 141.76C41.95 142.51 41.99 143.18 42.08 144C42.14 144.56 42.15 145.18 42.18 145.81L53.74 146.19C54.71 145.01 55.63 143.83 56.49 142.64ZM51.17 149.23L42.21 148.94C42.16 150.07 42.07 151.25 41.88 152.56L47.78 152.85C48.92 151.66 50.05 150.46 51.17 149.23ZM39.88 160.38C41.4 159.04 43.08 157.5 44.8 155.82L41.26 155.65C40.93 157.1 40.44 158.7 39.88 160.38ZM42.25 162.45C43.49 162.13 44.87 161.73 46.33 161.27L46.84 158.18C45.18 159.79 43.62 161.24 42.25 162.45ZM50.58 154.72L49.68 160.13C51 159.68 52.34 159.15 53.69 158.58L53.37 151.43C52.42 152.5 51.47 153.51 50.52 154.51C50.52 154.59 50.58 154.65 50.58 154.72ZM56.76 157.26C58.18 156.58 59.56 155.88 60.93 155.12C60.9 155.06 60.85 155.03 60.84 154.98L58.4 145.29C57.75 146.18 57.04 147.07 56.33 147.94L56.76 157.26ZM63.64 153.37C65.42 152.18 67.11 150.87 68.53 149.45L62.75 138.35C62.16 139.52 61.5 140.68 60.75 141.85L63.64 153.37ZM44.93 123.42L61.16 125.29C60.01 123.04 57.69 120.22 53.43 120.22C52.05 120.22 50.55 120.51 48.93 121.09C47.3 121.66 45.98 122.43 44.93 123.42ZM67.43 128.03C67.3 128.03 67.13 128.09 66.99 128.1L73.92 137.99C73.95 136.08 73.72 134.11 73.04 132.03C72.6 130.66 70.22 128.03 67.43 128.03ZM128.75 128.53C128.55 129.83 128.69 131.26 129.1 132.78L149.01 130.7C148.79 128.96 148.38 127.57 147.83 126.35L128.75 128.53ZM120.1 146.84L126.46 134.63C126.05 133.35 125.79 132.09 125.66 130.88L117.87 142C117.78 142.12 117.62 142.09 117.52 142.18C117.87 143.28 118.36 144.37 119.01 145.43C119.3 145.93 119.74 146.35 120.1 146.84ZM122.22 149.48C123.64 150.93 125.34 152.21 127.11 153.4L130 141.87C129.26 140.68 128.61 139.53 128.02 138.36L122.22 149.48ZM129.85 155.12C131.23 155.9 132.61 156.59 134.03 157.26L134.44 147.94C133.73 147.07 133.03 146.18 132.37 145.29L129.93 154.98C129.92 155.03 129.85 155.05 129.85 155.12ZM148.91 152.56C148.71 151.25 148.63 150.08 148.58 148.94L139.62 149.23C140.72 150.46 141.84 151.67 142.98 152.85L148.91 152.56ZM148.91 141.75L134.28 142.65C135.14 143.83 136.06 145.02 137.03 146.19L148.59 145.82C148.63 145.21 148.63 144.58 148.69 144.01C148.77 143.19 148.81 142.51 148.91 141.75ZM137.08 158.59C138.43 159.17 139.77 159.69 141.09 160.15L140.18 154.72C140.17 154.65 140.24 154.59 140.24 154.51C139.3 153.51 138.34 152.5 137.39 151.43L137.08 158.59ZM144.43 161.28C145.91 161.74 147.28 162.13 148.53 162.46C147.17 161.24 145.6 159.79 143.93 158.18L144.43 161.28ZM150.89 160.41C150.33 158.7 149.84 157.1 149.51 155.65L145.96 155.82C147.69 157.5 149.34 159.04 150.89 160.41ZM149.22 133.83L130.2 135.8C130.77 137.04 131.44 138.32 132.26 139.63L149.15 138.61C149.25 136.84 149.26 135.26 149.22 133.83ZM117.73 132.01C117.03 134.11 116.8 136.07 116.85 138.01L123.78 128.1C123.63 128.09 123.47 128.03 123.34 128.03C120.55 128.03 118.17 130.66 117.73 132.01ZM129.64 125.3L145.88 123.44C144.8 122.43 143.49 121.66 141.85 121.09C140.22 120.51 138.73 120.22 137.34 120.22C133.14 120.22 130.82 123.05 129.64 125.3ZM95.39 108.36C96.7 107.81 98.04 107.33 99.41 106.98C98 106.51 96.66 105.79 95.39 104.95C94.11 105.79 92.78 106.51 91.36 106.98C92.72 107.33 94.06 107.81 95.39 108.36ZM183.66 81.59C179.33 76.45 174.61 75.14 172.95 76.52C173.01 76.61 173.3 77.38 173.48 77.88C174.18 79.7 175.18 82.39 173.05 85.02C171.11 87.41 167.64 87.73 163.97 88.08C160.82 88.36 157.57 88.66 155.63 90.31C149.72 95.28 149.59 104.31 149.91 108.52C152.85 107.67 155.28 106.09 157.31 103.45C155.45 100.86 155.68 97.24 158.1 95.03C160.61 92.71 164.87 92.93 167.17 95.44C169.56 98.04 169.39 102.11 166.78 104.5C165.59 105.58 164.06 106.18 162.45 106.18C161.47 106.18 160.54 105.9 159.65 105.49C157.73 107.89 155.51 109.53 153.04 110.6C154.76 110.95 156.85 111.26 159.14 111.26C163.76 111.26 167.52 110.09 170.31 107.74C172.26 106.08 173.12 102.93 173.95 99.88C174.91 96.31 175.82 92.93 178.51 91.45C179.38 90.96 180.31 90.72 181.24 90.72C182.99 90.72 184.41 91.56 185.58 92.24C186.06 92.51 186.75 92.91 187.01 92.92C188.63 91.47 187.76 86.42 183.66 81.59ZM162.45 103.05C163.26 103.05 164.05 102.75 164.67 102.19C166.01 100.96 166.09 98.88 164.87 97.54C164.23 96.83 163.34 96.45 162.42 96.45C161.61 96.45 160.83 96.76 160.2 97.32C158.86 98.55 158.78 100.64 160 101.98C160.64 102.67 161.5 103.05 162.45 103.05Z" />
			<path id="Layer" fill-rule="evenodd" class="shp0" d="M140.68 53.42C140.27 51.96 140.06 50.44 140.14 48.88C140.23 47.28 140.63 45.76 141.2 44.33C141.2 44.31 141.18 44.29 141.18 44.26C141.2 44.06 141.33 43.93 141.4 43.78C142.2 41.93 143.39 40.27 144.93 38.88C146.46 37.5 148.26 36.54 150.19 35.9C150.36 35.85 150.5 35.73 150.72 35.72C150.75 35.72 150.76 35.74 150.79 35.74C152.03 35.39 153.3 35.16 154.61 35.16C156.41 35.16 158.15 35.55 159.81 36.19C159.81 36.19 159.81 36.19 159.81 36.19C159.84 36.19 159.87 36.19 159.91 36.19C159.97 36.19 160.01 36.28 160.09 36.3C162.11 37.12 163.94 38.35 165.42 40.01C168 42.88 169.3 46.6 169.09 50.46C168.89 54.33 167.18 57.88 164.29 60.48C161.62 62.85 158.18 64.17 154.62 64.17C150.5 64.17 146.57 62.42 143.83 59.34C142.32 57.65 141.31 55.67 140.71 53.56C140.71 53.52 140.68 53.49 140.68 53.44C140.68 53.43 140.68 53.43 140.68 53.42ZM165.68 47.17L160.88 46.91L160.55 52.96L165.38 53.24C165.68 52.28 165.93 51.3 165.98 50.28C166.05 49.22 165.91 48.17 165.68 47.17ZM157.77 46.73L151.7 46.41L151.37 52.46L157.43 52.79L157.77 46.73ZM148.58 46.24L143.89 45.98C143.56 46.95 143.32 47.98 143.25 49.04C143.19 50.07 143.33 51.05 143.54 52.02L148.26 52.29L148.58 46.24ZM146.16 57.26C146.68 57.85 147.27 58.36 147.91 58.81L148.1 55.41L144.71 55.22C145.12 55.93 145.58 56.63 146.16 57.26ZM157.01 60.65L157.26 55.91L151.22 55.58L150.96 60.29C152.91 60.91 155 61.05 157.01 60.65ZM162.21 58.15C162.84 57.57 163.39 56.92 163.86 56.27L160.38 56.08L160.2 59.54C160.91 59.15 161.59 58.69 162.21 58.15ZM163.09 42.1C162.53 41.45 161.89 40.91 161.23 40.43L161.05 43.79L164.47 43.97C164.08 43.31 163.61 42.67 163.09 42.1ZM154.6 38.27C153.76 38.27 152.93 38.41 152.13 38.59L151.87 43.29L157.93 43.62L158.19 38.93C157.04 38.55 155.84 38.29 154.6 38.27ZM147.04 41.2C146.44 41.73 145.91 42.31 145.47 42.94L148.76 43.12L148.94 39.83C148.26 40.22 147.62 40.68 147.04 41.2Z" />
			<path id="Layer" fill-rule="evenodd" class="shp0" d="M49.55 44.32C50.13 45.76 50.52 47.27 50.61 48.86C50.7 50.42 50.46 51.95 50.07 53.41C50.07 53.42 50.08 53.42 50.08 53.43C50.08 53.48 50.04 53.51 50.04 53.56C49.44 55.68 48.42 57.66 46.92 59.34C44.19 62.41 40.25 64.17 36.14 64.17C32.57 64.17 29.13 62.85 26.46 60.47C23.58 57.88 21.86 54.33 21.66 50.45C21.45 46.59 22.76 42.88 25.34 40C26.82 38.34 28.65 37.11 30.66 36.3C30.72 36.27 30.76 36.19 30.85 36.19C30.88 36.19 30.92 36.19 30.94 36.19C30.94 36.19 30.94 36.19 30.95 36.19C32.61 35.55 34.35 35.15 36.15 35.15C37.46 35.15 38.73 35.38 39.96 35.74C39.99 35.74 40.01 35.71 40.03 35.71C40.06 35.71 40.09 35.71 40.13 35.71C40.38 35.71 40.56 35.84 40.77 35.97C42.62 36.59 44.35 37.54 45.83 38.87C47.41 40.28 48.6 42.01 49.41 43.9C49.45 44.03 49.57 44.12 49.59 44.27C49.59 44.29 49.56 44.3 49.55 44.32ZM25.42 53.24L30.24 52.96L29.9 46.91L25.09 47.17C24.88 48.17 24.72 49.22 24.78 50.28C24.84 51.3 25.08 52.28 25.42 53.24ZM33.34 52.79L39.4 52.46L39.07 46.41L33.01 46.73L33.34 52.79ZM42.49 52.29L47.23 52.02C47.44 51.04 47.57 50.06 47.51 49.04C47.45 47.98 47.21 46.95 46.86 45.98L42.18 46.24L42.49 52.29ZM43.77 41.2C43.17 40.68 42.51 40.22 41.85 39.83L42.01 43.12L45.32 42.94C44.86 42.31 44.34 41.74 43.77 41.2ZM36.14 38.29C34.91 38.29 33.73 38.55 32.56 38.93L32.82 43.64L38.89 43.29L38.64 38.59C37.83 38.41 37 38.29 36.14 38.29ZM27.68 42.09C27.14 42.67 26.68 43.31 26.3 43.97L29.71 43.79L29.53 40.43C28.87 40.91 28.24 41.46 27.68 42.09ZM28.58 58.15C29.18 58.71 29.88 59.19 30.59 59.58L30.41 56.08L26.91 56.28C27.39 56.94 27.93 57.58 28.58 58.15ZM36.15 61.05C37.42 61.05 38.65 60.78 39.82 60.38L39.56 55.58L33.51 55.91L33.77 60.78C34.55 60.94 35.35 61.05 36.15 61.05ZM44.62 57.26C45.18 56.64 45.66 55.95 46.06 55.22L42.68 55.41L42.87 58.86C43.49 58.39 44.08 57.86 44.62 57.26Z" />
		</g>
	</g>
	<g id="Layer">
	</g>
	<g id="Layer">
	</g>
	<g id="Layer">
	</g>
	<g id="Layer">
	</g>
	<g id="Layer">
	</g>
	<g id="Layer">
	</g>
	<g id="Layer">
	</g>
	<g id="Layer">
	</g>
	<g id="Layer">
	</g>
	<g id="Layer">
	</g>
	<g id="Layer">
	</g>
	<g id="Layer">
	</g>
	<g id="Layer">
	</g>
	<g id="Layer">
	</g>
	<g id="Layer">
	</g>
</svg>